<svg width="410" height="244" viewBox="0 0 410 244" fill="none" xmlns="http://www.w3.org/2000/svg">
<g clip-path="url(#clip0_184_240)">
<path d="M405.9 224.5C405.9 197.645 400.651 171.052 390.451 146.241C380.252 121.43 365.303 98.8863 346.457 79.8967C327.612 60.9071 305.239 45.8437 280.616 35.5666C255.993 25.2896 229.602 20 202.95 20C176.298 20 149.908 25.2895 125.285 35.5666C100.661 45.8437 78.2884 60.907 59.4428 79.8966C40.5971 98.8862 25.6479 121.43 15.4487 146.241C5.24948 171.052 1.33442e-05 197.645 0 224.5" stroke="#EBEBEB" stroke-width="36" stroke-linecap="round" stroke-linejoin="round"/>
<path d="M0 224.5C3.36683e-06 185.694 10.9579 147.689 31.5937 114.923C52.2295 82.1582 81.6914 55.9857 116.538 39.4629C151.385 22.94 190.178 16.7488 228.386 21.6125C266.595 26.4763 302.641 42.1941 332.315 66.9301" stroke="#AFDB11" stroke-width="36" stroke-linecap="round" stroke-linejoin="round"/>
<rect x="-4" y="91" width="414" height="156" fill="url(#paint0_linear_184_240)"/>
<path d="M155.648 157L171.732 125.165V124.906H153.062V119.182H178.822V125.036L162.757 157H155.648Z" fill="black"/>
<path d="M197.464 157.517C194.719 157.517 192.281 157.055 190.151 156.132C188.034 155.209 186.372 153.947 185.165 152.347C183.971 150.734 183.38 148.906 183.393 146.862C183.38 145.274 183.725 143.815 184.427 142.486C185.129 141.156 186.076 140.048 187.271 139.162C188.477 138.263 189.819 137.691 191.296 137.445V137.186C189.351 136.755 187.775 135.764 186.569 134.213C185.375 132.65 184.784 130.846 184.796 128.803C184.784 126.857 185.326 125.122 186.421 123.595C187.517 122.069 189.019 120.868 190.927 119.994C192.835 119.108 195.014 118.665 197.464 118.665C199.889 118.665 202.049 119.108 203.945 119.994C205.853 120.868 207.355 122.069 208.451 123.595C209.559 125.122 210.113 126.857 210.113 128.803C210.113 130.846 209.504 132.65 208.285 134.213C207.078 135.764 205.521 136.755 203.613 137.186V137.445C205.09 137.691 206.42 138.263 207.602 139.162C208.796 140.048 209.744 141.156 210.445 142.486C211.159 143.815 211.516 145.274 211.516 146.862C211.516 148.906 210.913 150.734 209.707 152.347C208.5 153.947 206.838 155.209 204.721 156.132C202.616 157.055 200.197 157.517 197.464 157.517ZM197.464 152.236C198.88 152.236 200.111 151.996 201.157 151.516C202.203 151.023 203.016 150.334 203.594 149.447C204.173 148.561 204.469 147.539 204.481 146.382C204.469 145.176 204.155 144.111 203.539 143.188C202.936 142.252 202.105 141.519 201.046 140.99C200 140.461 198.806 140.196 197.464 140.196C196.11 140.196 194.903 140.461 193.844 140.99C192.786 141.519 191.949 142.252 191.333 143.188C190.73 144.111 190.434 145.176 190.447 146.382C190.434 147.539 190.718 148.561 191.296 149.447C191.875 150.322 192.687 151.005 193.734 151.497C194.792 151.99 196.036 152.236 197.464 152.236ZM197.464 135.007C198.621 135.007 199.643 134.773 200.529 134.305C201.428 133.838 202.136 133.185 202.653 132.348C203.17 131.511 203.434 130.545 203.447 129.449C203.434 128.366 203.176 127.418 202.671 126.605C202.166 125.78 201.465 125.146 200.566 124.703C199.667 124.248 198.633 124.02 197.464 124.02C196.27 124.02 195.217 124.248 194.306 124.703C193.407 125.146 192.706 125.78 192.201 126.605C191.709 127.418 191.469 128.366 191.481 129.449C191.469 130.545 191.715 131.511 192.219 132.348C192.737 133.173 193.444 133.825 194.343 134.305C195.254 134.773 196.294 135.007 197.464 135.007Z" fill="black"/>
<path d="M237.807 149.909V147.915C237.807 146.45 238.115 145.102 238.73 143.871C239.358 142.64 240.269 141.649 241.463 140.898C242.658 140.147 244.104 139.771 245.803 139.771C247.551 139.771 249.016 140.147 250.198 140.898C251.38 141.636 252.272 142.621 252.875 143.852C253.491 145.083 253.799 146.438 253.799 147.915V149.909C253.799 151.374 253.491 152.722 252.875 153.953C252.26 155.184 251.355 156.175 250.161 156.926C248.979 157.677 247.526 158.053 245.803 158.053C244.079 158.053 242.621 157.677 241.426 156.926C240.232 156.175 239.328 155.184 238.712 153.953C238.109 152.722 237.807 151.374 237.807 149.909ZM242.627 147.915V149.909C242.627 150.882 242.861 151.774 243.328 152.587C243.796 153.399 244.621 153.805 245.803 153.805C246.997 153.805 247.816 153.405 248.259 152.605C248.714 151.793 248.942 150.894 248.942 149.909V147.915C248.942 146.93 248.727 146.031 248.296 145.219C247.865 144.394 247.034 143.982 245.803 143.982C244.646 143.982 243.827 144.394 243.347 145.219C242.867 146.031 242.627 146.93 242.627 147.915ZM218.584 128.267V126.273C218.584 124.795 218.898 123.441 219.526 122.21C220.154 120.979 221.065 119.994 222.259 119.256C223.453 118.505 224.9 118.129 226.598 118.129C228.334 118.129 229.793 118.505 230.975 119.256C232.169 119.994 233.068 120.979 233.671 122.21C234.274 123.441 234.576 124.795 234.576 126.273V128.267C234.576 129.744 234.268 131.098 233.652 132.33C233.049 133.548 232.15 134.527 230.956 135.266C229.762 136.004 228.31 136.374 226.598 136.374C224.863 136.374 223.398 136.004 222.203 135.266C221.022 134.527 220.123 133.542 219.507 132.311C218.892 131.08 218.584 129.732 218.584 128.267ZM223.441 126.273V128.267C223.441 129.252 223.668 130.151 224.124 130.963C224.592 131.763 225.417 132.163 226.598 132.163C227.78 132.163 228.593 131.763 229.036 130.963C229.491 130.151 229.719 129.252 229.719 128.267V126.273C229.719 125.288 229.504 124.389 229.073 123.577C228.642 122.752 227.817 122.34 226.598 122.34C225.429 122.34 224.61 122.752 224.142 123.577C223.675 124.402 223.441 125.3 223.441 126.273ZM220.689 157L246.689 119.182H251.306L225.306 157H220.689Z" fill="black"/>
</g>
<defs>
<linearGradient id="paint0_linear_184_240" x1="203" y1="91" x2="203" y2="247" gradientUnits="userSpaceOnUse">
<stop stop-color="#F2FFC5" stop-opacity="0"/>
<stop offset="0.8" stop-color="#F2FFC5"/>
</linearGradient>
<clipPath id="clip0_184_240">
<rect width="410" height="244" fill="white"/>
</clipPath>
</defs>
</svg>
